<mxfile host="app.diagrams.net" modified="2024-04-27T13:39:21.901Z" agent="Mozilla/5.0 (Windows NT 10.0; Win64; x64) AppleWebKit/537.36 (KHTML, like Gecko) Chrome/124.0.0.0 Safari/537.36 Edg/124.0.0.0" etag="cKjliulDo_O0J_qoieNH" version="24.3.1" type="github">
  <diagram name="第 1 页" id="eT-_RRco7i_QiBPB95Gz">
    <mxGraphModel dx="5047" dy="2743" grid="1" gridSize="10" guides="1" tooltips="1" connect="1" arrows="1" fold="1" page="1" pageScale="1" pageWidth="10000" pageHeight="100000" math="0" shadow="0">
      <root>
        <mxCell id="0" />
        <mxCell id="1" parent="0" />
        <mxCell id="3-QKMSvpxjSs46W9_JY8-30" value="" style="rounded=1;whiteSpace=wrap;html=1;fillColor=none;strokeWidth=3;" vertex="1" parent="1">
          <mxGeometry x="6390" y="200" width="370" height="554" as="geometry" />
        </mxCell>
        <mxCell id="O-swme6AsPe_T9yoObNY-1" value="" style="edgeStyle=orthogonalEdgeStyle;rounded=0;orthogonalLoop=1;jettySize=auto;html=1;" parent="1" source="uPnuV9epPYfRb-qK0zRt-1" target="F74dzutGbXCGzzQFyR6Q-1" edge="1">
          <mxGeometry relative="1" as="geometry" />
        </mxCell>
        <mxCell id="uPnuV9epPYfRb-qK0zRt-1" value="" style="rounded=0;whiteSpace=wrap;html=1;fillColor=#f8cecc;strokeColor=#b85450;" parent="1" vertex="1">
          <mxGeometry x="100" y="200" width="120" height="60" as="geometry" />
        </mxCell>
        <mxCell id="F74dzutGbXCGzzQFyR6Q-1" value="Text" style="text;html=1;align=center;verticalAlign=middle;resizable=0;points=[];autosize=1;strokeColor=none;fillColor=none;" parent="1" vertex="1">
          <mxGeometry x="135" y="378" width="50" height="30" as="geometry" />
        </mxCell>
        <mxCell id="tOhdBeq2l08R76yqY59q-1" value="" style="rounded=0;whiteSpace=wrap;html=1;fillColor=#dae8fc;strokeColor=#6c8ebf;" parent="1" vertex="1">
          <mxGeometry x="280" y="200" width="120" height="60" as="geometry" />
        </mxCell>
        <mxCell id="A3ckSOYQQGKbFQRG7E-9-14" value="" style="edgeStyle=orthogonalEdgeStyle;rounded=0;orthogonalLoop=1;jettySize=auto;html=1;strokeWidth=3;" parent="1" source="A3ckSOYQQGKbFQRG7E-9-7" target="A3ckSOYQQGKbFQRG7E-9-8" edge="1">
          <mxGeometry relative="1" as="geometry" />
        </mxCell>
        <mxCell id="A3ckSOYQQGKbFQRG7E-9-21" style="edgeStyle=orthogonalEdgeStyle;rounded=0;orthogonalLoop=1;jettySize=auto;html=1;exitX=1;exitY=0.5;exitDx=0;exitDy=0;entryX=1;entryY=0.5;entryDx=0;entryDy=0;strokeWidth=2;" parent="1" source="A3ckSOYQQGKbFQRG7E-9-7" target="A3ckSOYQQGKbFQRG7E-9-8" edge="1">
          <mxGeometry relative="1" as="geometry">
            <mxPoint x="1680" y="320" as="targetPoint" />
            <Array as="points">
              <mxPoint x="1600" y="180" />
              <mxPoint x="1600" y="320" />
            </Array>
          </mxGeometry>
        </mxCell>
        <mxCell id="A3ckSOYQQGKbFQRG7E-9-7" value="&lt;div&gt;&lt;font style=&quot;font-size: 38px;&quot;&gt;&lt;br&gt;&lt;/font&gt;&lt;/div&gt;&lt;font style=&quot;font-size: 38px;&quot;&gt;Multi-Head&lt;/font&gt;&lt;div&gt;&lt;span style=&quot;font-size: 38px;&quot;&gt;Attention&lt;br&gt;&lt;/span&gt;&lt;div&gt;&lt;font style=&quot;font-size: 38px;&quot;&gt;&lt;br&gt;&lt;/font&gt;&lt;/div&gt;&lt;/div&gt;" style="rounded=1;whiteSpace=wrap;html=1;fillColor=#ffe6cc;strokeColor=#d79b00;" parent="1" vertex="1">
          <mxGeometry x="1240" y="120" width="320" height="120" as="geometry" />
        </mxCell>
        <mxCell id="A3ckSOYQQGKbFQRG7E-9-19" style="edgeStyle=orthogonalEdgeStyle;rounded=0;orthogonalLoop=1;jettySize=auto;html=1;exitX=0.5;exitY=1;exitDx=0;exitDy=0;entryX=0.5;entryY=0;entryDx=0;entryDy=0;strokeWidth=3;" parent="1" source="A3ckSOYQQGKbFQRG7E-9-8" target="A3ckSOYQQGKbFQRG7E-9-12" edge="1">
          <mxGeometry relative="1" as="geometry" />
        </mxCell>
        <mxCell id="A3ckSOYQQGKbFQRG7E-9-8" value="&lt;font style=&quot;font-size: 38px;&quot;&gt;Add&amp;amp;Norm&lt;/font&gt;" style="rounded=1;whiteSpace=wrap;html=1;fillColor=#fff2cc;strokeColor=#d6b656;" parent="1" vertex="1">
          <mxGeometry x="1240" y="280" width="320" height="80" as="geometry" />
        </mxCell>
        <mxCell id="A3ckSOYQQGKbFQRG7E-9-20" style="edgeStyle=orthogonalEdgeStyle;rounded=0;orthogonalLoop=1;jettySize=auto;html=1;exitX=0.5;exitY=1;exitDx=0;exitDy=0;entryX=0.5;entryY=0;entryDx=0;entryDy=0;strokeWidth=3;" parent="1" source="A3ckSOYQQGKbFQRG7E-9-12" target="A3ckSOYQQGKbFQRG7E-9-13" edge="1">
          <mxGeometry relative="1" as="geometry" />
        </mxCell>
        <mxCell id="A3ckSOYQQGKbFQRG7E-9-12" value="&lt;div&gt;&lt;font style=&quot;font-size: 38px;&quot;&gt;&lt;br&gt;&lt;/font&gt;&lt;/div&gt;&lt;font style=&quot;font-size: 38px;&quot;&gt;Feed&lt;/font&gt;&lt;div&gt;&lt;span style=&quot;font-size: 38px;&quot;&gt;Forward&lt;br&gt;&lt;/span&gt;&lt;div&gt;&lt;font style=&quot;font-size: 38px;&quot;&gt;&lt;br&gt;&lt;/font&gt;&lt;/div&gt;&lt;/div&gt;" style="rounded=1;whiteSpace=wrap;html=1;fillColor=#dae8fc;strokeColor=#6c8ebf;" parent="1" vertex="1">
          <mxGeometry x="1240" y="400" width="320" height="120" as="geometry" />
        </mxCell>
        <mxCell id="A3ckSOYQQGKbFQRG7E-9-13" value="&lt;font style=&quot;font-size: 38px;&quot;&gt;Add&amp;amp;Norm&lt;/font&gt;" style="rounded=1;whiteSpace=wrap;html=1;fillColor=#fff2cc;strokeColor=#d6b656;" parent="1" vertex="1">
          <mxGeometry x="1240" y="560" width="320" height="80" as="geometry" />
        </mxCell>
        <mxCell id="A3ckSOYQQGKbFQRG7E-9-22" style="edgeStyle=orthogonalEdgeStyle;rounded=0;orthogonalLoop=1;jettySize=auto;html=1;exitX=1;exitY=0.5;exitDx=0;exitDy=0;entryX=1;entryY=0.5;entryDx=0;entryDy=0;strokeWidth=2;" parent="1" edge="1">
          <mxGeometry relative="1" as="geometry">
            <mxPoint x="1560" y="600" as="targetPoint" />
            <mxPoint x="1560" y="460" as="sourcePoint" />
            <Array as="points">
              <mxPoint x="1600" y="460" />
              <mxPoint x="1600" y="600" />
            </Array>
          </mxGeometry>
        </mxCell>
        <mxCell id="A3ckSOYQQGKbFQRG7E-9-24" value="" style="rounded=1;whiteSpace=wrap;html=1;fillColor=none;strokeWidth=3;" parent="1" vertex="1">
          <mxGeometry x="1160" y="80" width="480" height="600" as="geometry" />
        </mxCell>
        <mxCell id="3-QKMSvpxjSs46W9_JY8-1" value="" style="rounded=1;whiteSpace=wrap;html=1;fillColor=none;strokeWidth=3;dashed=1;" vertex="1" parent="1">
          <mxGeometry x="4070" y="570" width="360" height="340" as="geometry" />
        </mxCell>
        <mxCell id="3-QKMSvpxjSs46W9_JY8-14" value="&lt;font style=&quot;font-size: 38px;&quot;&gt;conv1&lt;/font&gt;" style="rounded=1;whiteSpace=wrap;html=1;fillColor=#ffe6cc;strokeColor=#d79b00;arcSize=35;rotation=0;" vertex="1" parent="1">
          <mxGeometry x="5150" y="138" width="280" height="62" as="geometry" />
        </mxCell>
        <mxCell id="3-QKMSvpxjSs46W9_JY8-18" value="&lt;font style=&quot;font-size: 38px;&quot;&gt;conv2&lt;/font&gt;" style="rounded=1;whiteSpace=wrap;html=1;fillColor=#ffe6cc;strokeColor=#d79b00;arcSize=35;rotation=0;" vertex="1" parent="1">
          <mxGeometry x="4750" y="130" width="280" height="62" as="geometry" />
        </mxCell>
        <mxCell id="3-QKMSvpxjSs46W9_JY8-19" value="&lt;span style=&quot;font-size: 38px;&quot;&gt;bn1&lt;/span&gt;" style="rounded=1;whiteSpace=wrap;html=1;fillColor=#fff2cc;strokeColor=#d6b656;arcSize=35;rotation=0;" vertex="1" parent="1">
          <mxGeometry x="5940" y="138" width="280" height="62" as="geometry" />
        </mxCell>
        <mxCell id="3-QKMSvpxjSs46W9_JY8-20" value="&lt;span style=&quot;font-size: 38px;&quot;&gt;bn2&lt;/span&gt;" style="rounded=1;whiteSpace=wrap;html=1;fillColor=#fff2cc;strokeColor=#d6b656;arcSize=35;rotation=0;" vertex="1" parent="1">
          <mxGeometry x="6435" y="655" width="280" height="62" as="geometry" />
        </mxCell>
        <mxCell id="3-QKMSvpxjSs46W9_JY8-22" value="&lt;span style=&quot;font-size: 38px;&quot;&gt;maxpool&lt;/span&gt;" style="rounded=1;whiteSpace=wrap;html=1;fillColor=#f8cecc;strokeColor=#b85450;arcSize=35;rotation=0;" vertex="1" parent="1">
          <mxGeometry x="4550" y="280" width="280" height="62" as="geometry" />
        </mxCell>
        <mxCell id="3-QKMSvpxjSs46W9_JY8-24" value="&lt;font style=&quot;font-size: 38px;&quot;&gt;downsample&lt;/font&gt;" style="rounded=1;whiteSpace=wrap;html=1;fillColor=#e1d5e7;strokeColor=#9673a6;arcSize=35;rotation=0;" vertex="1" parent="1">
          <mxGeometry x="4875" y="280" width="280" height="62" as="geometry" />
        </mxCell>
        <mxCell id="3-QKMSvpxjSs46W9_JY8-29" style="edgeStyle=orthogonalEdgeStyle;rounded=0;orthogonalLoop=1;jettySize=auto;html=1;exitX=0.5;exitY=1;exitDx=0;exitDy=0;entryX=0.5;entryY=0;entryDx=0;entryDy=0;fontFamily=Helvetica;fontSize=12;fontColor=default;" edge="1" parent="1" source="3-QKMSvpxjSs46W9_JY8-25" target="3-QKMSvpxjSs46W9_JY8-26">
          <mxGeometry relative="1" as="geometry" />
        </mxCell>
        <mxCell id="3-QKMSvpxjSs46W9_JY8-25" value="&lt;span style=&quot;font-size: 38px;&quot;&gt;Conv2d&lt;/span&gt;" style="rounded=1;whiteSpace=wrap;html=1;fillColor=#ffe6cc;strokeColor=#d79b00;arcSize=35;rotation=0;" vertex="1" parent="1">
          <mxGeometry x="4120" y="628" width="280" height="62" as="geometry" />
        </mxCell>
        <mxCell id="3-QKMSvpxjSs46W9_JY8-26" value="&lt;span style=&quot;font-size: 38px;&quot;&gt;BatchNorm2d&lt;/span&gt;" style="rounded=1;whiteSpace=wrap;html=1;fillColor=#fff2cc;strokeColor=#d6b656;arcSize=35;rotation=0;" vertex="1" parent="1">
          <mxGeometry x="4120" y="780" width="280" height="62" as="geometry" />
        </mxCell>
        <mxCell id="3-QKMSvpxjSs46W9_JY8-27" value="&lt;span style=&quot;font-size: 38px;&quot;&gt;avgpool&lt;/span&gt;" style="rounded=1;whiteSpace=wrap;html=1;fillColor=#eeeeee;strokeColor=#36393d;arcSize=35;rotation=0;" vertex="1" parent="1">
          <mxGeometry x="5250" y="298" width="280" height="62" as="geometry" />
        </mxCell>
        <mxCell id="3-QKMSvpxjSs46W9_JY8-28" value="&lt;span style=&quot;font-size: 38px;&quot;&gt;fc&lt;/span&gt;" style="rounded=1;whiteSpace=wrap;html=1;fillColor=#d5e8d4;strokeColor=#82b366;arcSize=35;rotation=0;" vertex="1" parent="1">
          <mxGeometry x="5590" y="308" width="280" height="62" as="geometry" />
        </mxCell>
        <mxCell id="3-QKMSvpxjSs46W9_JY8-33" value="&lt;span style=&quot;font-size: 38px;&quot;&gt;Conv2d&lt;/span&gt;" style="rounded=1;whiteSpace=wrap;html=1;fillColor=#e1d5e7;strokeColor=#9673a6;arcSize=35;rotation=0;" vertex="1" parent="1">
          <mxGeometry x="4190" y="289" width="280" height="62" as="geometry" />
        </mxCell>
        <mxCell id="3-QKMSvpxjSs46W9_JY8-34" value="&lt;span style=&quot;font-size: 38px;&quot;&gt;BatchNorm2d&lt;/span&gt;" style="rounded=1;whiteSpace=wrap;html=1;fillColor=#e1d5e7;strokeColor=#9673a6;arcSize=35;rotation=0;" vertex="1" parent="1">
          <mxGeometry x="4580" y="480" width="280" height="62" as="geometry" />
        </mxCell>
        <mxCell id="3-QKMSvpxjSs46W9_JY8-38" style="edgeStyle=orthogonalEdgeStyle;rounded=0;orthogonalLoop=1;jettySize=auto;html=1;exitX=0.5;exitY=1;exitDx=0;exitDy=0;entryX=0.5;entryY=0;entryDx=0;entryDy=0;fontFamily=Helvetica;fontSize=12;fontColor=default;" edge="1" parent="1" source="3-QKMSvpxjSs46W9_JY8-35" target="3-QKMSvpxjSs46W9_JY8-36">
          <mxGeometry relative="1" as="geometry" />
        </mxCell>
        <mxCell id="3-QKMSvpxjSs46W9_JY8-35" value="&lt;font style=&quot;font-size: 38px;&quot;&gt;conv1&lt;/font&gt;" style="rounded=1;whiteSpace=wrap;html=1;fillColor=#ffe6cc;strokeColor=#d79b00;arcSize=35;rotation=0;" vertex="1" parent="1">
          <mxGeometry x="6435" y="224" width="280" height="62" as="geometry" />
        </mxCell>
        <mxCell id="3-QKMSvpxjSs46W9_JY8-42" style="edgeStyle=orthogonalEdgeStyle;rounded=0;orthogonalLoop=1;jettySize=auto;html=1;exitX=0.5;exitY=1;exitDx=0;exitDy=0;entryX=0.5;entryY=0;entryDx=0;entryDy=0;fontFamily=Helvetica;fontSize=12;fontColor=default;" edge="1" parent="1" source="3-QKMSvpxjSs46W9_JY8-36" target="3-QKMSvpxjSs46W9_JY8-41">
          <mxGeometry relative="1" as="geometry" />
        </mxCell>
        <mxCell id="3-QKMSvpxjSs46W9_JY8-36" value="&lt;span style=&quot;font-size: 38px;&quot;&gt;bn1&lt;/span&gt;" style="rounded=1;whiteSpace=wrap;html=1;fillColor=#fff2cc;strokeColor=#d6b656;arcSize=35;rotation=0;" vertex="1" parent="1">
          <mxGeometry x="6435" y="336" width="280" height="62" as="geometry" />
        </mxCell>
        <mxCell id="3-QKMSvpxjSs46W9_JY8-40" style="edgeStyle=orthogonalEdgeStyle;rounded=0;orthogonalLoop=1;jettySize=auto;html=1;exitX=0.5;exitY=1;exitDx=0;exitDy=0;entryX=0.5;entryY=0;entryDx=0;entryDy=0;fontFamily=Helvetica;fontSize=12;fontColor=default;" edge="1" parent="1" source="3-QKMSvpxjSs46W9_JY8-37" target="3-QKMSvpxjSs46W9_JY8-20">
          <mxGeometry relative="1" as="geometry" />
        </mxCell>
        <mxCell id="3-QKMSvpxjSs46W9_JY8-37" value="&lt;font style=&quot;font-size: 38px;&quot;&gt;conv2&lt;/font&gt;" style="rounded=1;whiteSpace=wrap;html=1;fillColor=#ffe6cc;strokeColor=#d79b00;arcSize=35;rotation=0;" vertex="1" parent="1">
          <mxGeometry x="6435" y="546" width="280" height="62" as="geometry" />
        </mxCell>
        <mxCell id="3-QKMSvpxjSs46W9_JY8-43" style="edgeStyle=orthogonalEdgeStyle;rounded=0;orthogonalLoop=1;jettySize=auto;html=1;exitX=0.5;exitY=1;exitDx=0;exitDy=0;entryX=0.5;entryY=0;entryDx=0;entryDy=0;fontFamily=Helvetica;fontSize=12;fontColor=default;" edge="1" parent="1" source="3-QKMSvpxjSs46W9_JY8-41" target="3-QKMSvpxjSs46W9_JY8-37">
          <mxGeometry relative="1" as="geometry" />
        </mxCell>
        <mxCell id="3-QKMSvpxjSs46W9_JY8-41" value="&lt;span style=&quot;font-size: 38px;&quot;&gt;relu&lt;/span&gt;" style="rounded=1;whiteSpace=wrap;html=1;fillColor=#cce5ff;strokeColor=#36393d;arcSize=35;rotation=0;" vertex="1" parent="1">
          <mxGeometry x="6435" y="446" width="280" height="62" as="geometry" />
        </mxCell>
        <mxCell id="3-QKMSvpxjSs46W9_JY8-54" value="" style="group" vertex="1" connectable="0" parent="1">
          <mxGeometry x="5900" y="820" width="440" height="330" as="geometry" />
        </mxCell>
        <mxCell id="3-QKMSvpxjSs46W9_JY8-44" value="" style="rounded=1;whiteSpace=wrap;html=1;fillColor=none;strokeWidth=3;" vertex="1" parent="3-QKMSvpxjSs46W9_JY8-54">
          <mxGeometry width="439.9999999999999" height="330" as="geometry" />
        </mxCell>
        <mxCell id="3-QKMSvpxjSs46W9_JY8-45" value="&lt;span style=&quot;font-size: 38px;&quot;&gt;bn2&lt;/span&gt;" style="rounded=1;whiteSpace=wrap;html=1;fillColor=#fff2cc;strokeColor=#d6b656;arcSize=35;rotation=0;" vertex="1" parent="3-QKMSvpxjSs46W9_JY8-54">
          <mxGeometry x="53.51351351351351" y="271.02888086642594" width="332.9729729729729" height="36.93140794223826" as="geometry" />
        </mxCell>
        <mxCell id="3-QKMSvpxjSs46W9_JY8-46" style="edgeStyle=orthogonalEdgeStyle;rounded=0;orthogonalLoop=1;jettySize=auto;html=1;exitX=0.5;exitY=1;exitDx=0;exitDy=0;entryX=0.5;entryY=0;entryDx=0;entryDy=0;fontFamily=Helvetica;fontSize=12;fontColor=default;" edge="1" parent="3-QKMSvpxjSs46W9_JY8-54" source="3-QKMSvpxjSs46W9_JY8-47" target="3-QKMSvpxjSs46W9_JY8-49">
          <mxGeometry relative="1" as="geometry" />
        </mxCell>
        <mxCell id="3-QKMSvpxjSs46W9_JY8-47" value="&lt;font style=&quot;font-size: 38px;&quot;&gt;conv1&lt;/font&gt;" style="rounded=1;whiteSpace=wrap;html=1;fillColor=#ffe6cc;strokeColor=#d79b00;arcSize=35;rotation=0;" vertex="1" parent="3-QKMSvpxjSs46W9_JY8-54">
          <mxGeometry x="53.51351351351351" y="14.296028880866425" width="332.9729729729729" height="36.93140794223826" as="geometry" />
        </mxCell>
        <mxCell id="3-QKMSvpxjSs46W9_JY8-48" style="edgeStyle=orthogonalEdgeStyle;rounded=0;orthogonalLoop=1;jettySize=auto;html=1;exitX=0.5;exitY=1;exitDx=0;exitDy=0;entryX=0.5;entryY=0;entryDx=0;entryDy=0;fontFamily=Helvetica;fontSize=12;fontColor=default;" edge="1" parent="3-QKMSvpxjSs46W9_JY8-54" source="3-QKMSvpxjSs46W9_JY8-49" target="3-QKMSvpxjSs46W9_JY8-53">
          <mxGeometry relative="1" as="geometry" />
        </mxCell>
        <mxCell id="3-QKMSvpxjSs46W9_JY8-49" value="&lt;span style=&quot;font-size: 38px;&quot;&gt;bn1&lt;/span&gt;" style="rounded=1;whiteSpace=wrap;html=1;fillColor=#fff2cc;strokeColor=#d6b656;arcSize=35;rotation=0;" vertex="1" parent="3-QKMSvpxjSs46W9_JY8-54">
          <mxGeometry x="53.51351351351351" y="81.01083032490973" width="332.9729729729729" height="36.93140794223826" as="geometry" />
        </mxCell>
        <mxCell id="3-QKMSvpxjSs46W9_JY8-50" style="edgeStyle=orthogonalEdgeStyle;rounded=0;orthogonalLoop=1;jettySize=auto;html=1;exitX=0.5;exitY=1;exitDx=0;exitDy=0;entryX=0.5;entryY=0;entryDx=0;entryDy=0;fontFamily=Helvetica;fontSize=12;fontColor=default;" edge="1" parent="3-QKMSvpxjSs46W9_JY8-54" source="3-QKMSvpxjSs46W9_JY8-51" target="3-QKMSvpxjSs46W9_JY8-45">
          <mxGeometry relative="1" as="geometry" />
        </mxCell>
        <mxCell id="3-QKMSvpxjSs46W9_JY8-51" value="&lt;font style=&quot;font-size: 38px;&quot;&gt;conv2&lt;/font&gt;" style="rounded=1;whiteSpace=wrap;html=1;fillColor=#ffe6cc;strokeColor=#d79b00;arcSize=35;rotation=0;" vertex="1" parent="3-QKMSvpxjSs46W9_JY8-54">
          <mxGeometry x="53.51351351351351" y="206.10108303249095" width="332.9729729729729" height="36.93140794223826" as="geometry" />
        </mxCell>
        <mxCell id="3-QKMSvpxjSs46W9_JY8-52" style="edgeStyle=orthogonalEdgeStyle;rounded=0;orthogonalLoop=1;jettySize=auto;html=1;exitX=0.5;exitY=1;exitDx=0;exitDy=0;entryX=0.5;entryY=0;entryDx=0;entryDy=0;fontFamily=Helvetica;fontSize=12;fontColor=default;" edge="1" parent="3-QKMSvpxjSs46W9_JY8-54" source="3-QKMSvpxjSs46W9_JY8-53" target="3-QKMSvpxjSs46W9_JY8-51">
          <mxGeometry relative="1" as="geometry" />
        </mxCell>
        <mxCell id="3-QKMSvpxjSs46W9_JY8-53" value="&lt;span style=&quot;font-size: 38px;&quot;&gt;relu&lt;/span&gt;" style="rounded=1;whiteSpace=wrap;html=1;fillColor=#cce5ff;strokeColor=#36393d;arcSize=35;rotation=0;" vertex="1" parent="3-QKMSvpxjSs46W9_JY8-54">
          <mxGeometry x="53.51351351351351" y="146.53429602888085" width="332.9729729729729" height="36.93140794223826" as="geometry" />
        </mxCell>
        <mxCell id="3-QKMSvpxjSs46W9_JY8-56" value="" style="group" vertex="1" connectable="0" parent="1">
          <mxGeometry x="6500" y="820" width="440" height="330" as="geometry" />
        </mxCell>
        <mxCell id="3-QKMSvpxjSs46W9_JY8-57" value="" style="rounded=1;whiteSpace=wrap;html=1;fillColor=none;strokeWidth=3;" vertex="1" parent="3-QKMSvpxjSs46W9_JY8-56">
          <mxGeometry width="439.9999999999999" height="330" as="geometry" />
        </mxCell>
        <mxCell id="3-QKMSvpxjSs46W9_JY8-58" value="&lt;span style=&quot;font-size: 38px;&quot;&gt;bn2&lt;/span&gt;" style="rounded=1;whiteSpace=wrap;html=1;fillColor=#fff2cc;strokeColor=#d6b656;arcSize=35;rotation=0;" vertex="1" parent="3-QKMSvpxjSs46W9_JY8-56">
          <mxGeometry x="53.51351351351351" y="271.02888086642594" width="332.9729729729729" height="36.93140794223826" as="geometry" />
        </mxCell>
        <mxCell id="3-QKMSvpxjSs46W9_JY8-59" style="edgeStyle=orthogonalEdgeStyle;rounded=0;orthogonalLoop=1;jettySize=auto;html=1;exitX=0.5;exitY=1;exitDx=0;exitDy=0;entryX=0.5;entryY=0;entryDx=0;entryDy=0;fontFamily=Helvetica;fontSize=12;fontColor=default;" edge="1" parent="3-QKMSvpxjSs46W9_JY8-56" source="3-QKMSvpxjSs46W9_JY8-60" target="3-QKMSvpxjSs46W9_JY8-62">
          <mxGeometry relative="1" as="geometry" />
        </mxCell>
        <mxCell id="3-QKMSvpxjSs46W9_JY8-60" value="&lt;font style=&quot;font-size: 38px;&quot;&gt;conv1&lt;/font&gt;" style="rounded=1;whiteSpace=wrap;html=1;fillColor=#ffe6cc;strokeColor=#d79b00;arcSize=35;rotation=0;" vertex="1" parent="3-QKMSvpxjSs46W9_JY8-56">
          <mxGeometry x="53.51351351351351" y="14.296028880866425" width="332.9729729729729" height="36.93140794223826" as="geometry" />
        </mxCell>
        <mxCell id="3-QKMSvpxjSs46W9_JY8-61" style="edgeStyle=orthogonalEdgeStyle;rounded=0;orthogonalLoop=1;jettySize=auto;html=1;exitX=0.5;exitY=1;exitDx=0;exitDy=0;entryX=0.5;entryY=0;entryDx=0;entryDy=0;fontFamily=Helvetica;fontSize=12;fontColor=default;" edge="1" parent="3-QKMSvpxjSs46W9_JY8-56" source="3-QKMSvpxjSs46W9_JY8-62" target="3-QKMSvpxjSs46W9_JY8-66">
          <mxGeometry relative="1" as="geometry" />
        </mxCell>
        <mxCell id="3-QKMSvpxjSs46W9_JY8-62" value="&lt;span style=&quot;font-size: 38px;&quot;&gt;bn1&lt;/span&gt;" style="rounded=1;whiteSpace=wrap;html=1;fillColor=#fff2cc;strokeColor=#d6b656;arcSize=35;rotation=0;" vertex="1" parent="3-QKMSvpxjSs46W9_JY8-56">
          <mxGeometry x="53.51351351351351" y="81.01083032490973" width="332.9729729729729" height="36.93140794223826" as="geometry" />
        </mxCell>
        <mxCell id="3-QKMSvpxjSs46W9_JY8-63" style="edgeStyle=orthogonalEdgeStyle;rounded=0;orthogonalLoop=1;jettySize=auto;html=1;exitX=0.5;exitY=1;exitDx=0;exitDy=0;entryX=0.5;entryY=0;entryDx=0;entryDy=0;fontFamily=Helvetica;fontSize=12;fontColor=default;" edge="1" parent="3-QKMSvpxjSs46W9_JY8-56" source="3-QKMSvpxjSs46W9_JY8-64" target="3-QKMSvpxjSs46W9_JY8-58">
          <mxGeometry relative="1" as="geometry" />
        </mxCell>
        <mxCell id="3-QKMSvpxjSs46W9_JY8-64" value="&lt;font style=&quot;font-size: 38px;&quot;&gt;conv2&lt;/font&gt;" style="rounded=1;whiteSpace=wrap;html=1;fillColor=#ffe6cc;strokeColor=#d79b00;arcSize=35;rotation=0;" vertex="1" parent="3-QKMSvpxjSs46W9_JY8-56">
          <mxGeometry x="53.51351351351351" y="206.10108303249095" width="332.9729729729729" height="36.93140794223826" as="geometry" />
        </mxCell>
        <mxCell id="3-QKMSvpxjSs46W9_JY8-65" style="edgeStyle=orthogonalEdgeStyle;rounded=0;orthogonalLoop=1;jettySize=auto;html=1;exitX=0.5;exitY=1;exitDx=0;exitDy=0;entryX=0.5;entryY=0;entryDx=0;entryDy=0;fontFamily=Helvetica;fontSize=12;fontColor=default;" edge="1" parent="3-QKMSvpxjSs46W9_JY8-56" source="3-QKMSvpxjSs46W9_JY8-66" target="3-QKMSvpxjSs46W9_JY8-64">
          <mxGeometry relative="1" as="geometry" />
        </mxCell>
        <mxCell id="3-QKMSvpxjSs46W9_JY8-66" value="&lt;span style=&quot;font-size: 38px;&quot;&gt;relu&lt;/span&gt;" style="rounded=1;whiteSpace=wrap;html=1;fillColor=#cce5ff;strokeColor=#36393d;arcSize=35;rotation=0;" vertex="1" parent="3-QKMSvpxjSs46W9_JY8-56">
          <mxGeometry x="53.51351351351351" y="146.53429602888085" width="332.9729729729729" height="36.93140794223826" as="geometry" />
        </mxCell>
        <mxCell id="3-QKMSvpxjSs46W9_JY8-70" value="&lt;span style=&quot;font-size: 38px;&quot;&gt;relu&lt;/span&gt;" style="rounded=1;whiteSpace=wrap;html=1;fillColor=#cce5ff;strokeColor=#36393d;arcSize=35;rotation=0;" vertex="1" parent="1">
          <mxGeometry x="5310" y="446" width="280" height="62" as="geometry" />
        </mxCell>
        <mxCell id="3-QKMSvpxjSs46W9_JY8-78" value="" style="group;rotation=0;" vertex="1" connectable="0" parent="1">
          <mxGeometry x="5090" y="960" width="420" height="350" as="geometry" />
        </mxCell>
        <mxCell id="3-QKMSvpxjSs46W9_JY8-73" style="edgeStyle=orthogonalEdgeStyle;rounded=0;orthogonalLoop=1;jettySize=auto;html=1;exitX=0.5;exitY=1;exitDx=0;exitDy=0;fontFamily=Helvetica;fontSize=12;fontColor=default;" edge="1" parent="3-QKMSvpxjSs46W9_JY8-78" source="3-QKMSvpxjSs46W9_JY8-68" target="3-QKMSvpxjSs46W9_JY8-69">
          <mxGeometry relative="1" as="geometry" />
        </mxCell>
        <mxCell id="3-QKMSvpxjSs46W9_JY8-68" value="&lt;font style=&quot;font-size: 38px;&quot;&gt;conv1&lt;/font&gt;" style="rounded=1;whiteSpace=wrap;html=1;fillColor=#ffe6cc;strokeColor=#d79b00;arcSize=35;rotation=0;" vertex="1" parent="3-QKMSvpxjSs46W9_JY8-78">
          <mxGeometry y="74.28571428571429" width="419.99999999999994" height="30.91168091168091" as="geometry" />
        </mxCell>
        <mxCell id="3-QKMSvpxjSs46W9_JY8-74" style="edgeStyle=orthogonalEdgeStyle;rounded=0;orthogonalLoop=1;jettySize=auto;html=1;exitX=0.5;exitY=1;exitDx=0;exitDy=0;fontFamily=Helvetica;fontSize=12;fontColor=default;" edge="1" parent="3-QKMSvpxjSs46W9_JY8-78" source="3-QKMSvpxjSs46W9_JY8-69" target="3-QKMSvpxjSs46W9_JY8-71">
          <mxGeometry relative="1" as="geometry" />
        </mxCell>
        <mxCell id="3-QKMSvpxjSs46W9_JY8-69" value="&lt;span style=&quot;font-size: 38px;&quot;&gt;bn1&lt;/span&gt;" style="rounded=1;whiteSpace=wrap;html=1;fillColor=#fff2cc;strokeColor=#d6b656;arcSize=35;rotation=0;" vertex="1" parent="3-QKMSvpxjSs46W9_JY8-78">
          <mxGeometry y="154.28571428571425" width="419.99999999999994" height="30.91168091168091" as="geometry" />
        </mxCell>
        <mxCell id="3-QKMSvpxjSs46W9_JY8-75" style="edgeStyle=orthogonalEdgeStyle;rounded=0;orthogonalLoop=1;jettySize=auto;html=1;exitX=0.5;exitY=1;exitDx=0;exitDy=0;fontFamily=Helvetica;fontSize=12;fontColor=default;" edge="1" parent="3-QKMSvpxjSs46W9_JY8-78" source="3-QKMSvpxjSs46W9_JY8-71" target="3-QKMSvpxjSs46W9_JY8-72">
          <mxGeometry relative="1" as="geometry" />
        </mxCell>
        <mxCell id="3-QKMSvpxjSs46W9_JY8-71" value="&lt;span style=&quot;font-size: 38px;&quot;&gt;relu&lt;/span&gt;" style="rounded=1;whiteSpace=wrap;html=1;fillColor=#cce5ff;strokeColor=#36393d;arcSize=35;rotation=0;" vertex="1" parent="3-QKMSvpxjSs46W9_JY8-78">
          <mxGeometry y="234.2857142857143" width="419.99999999999994" height="30.91168091168091" as="geometry" />
        </mxCell>
        <mxCell id="3-QKMSvpxjSs46W9_JY8-72" value="&lt;span style=&quot;font-size: 38px;&quot;&gt;maxpool&lt;/span&gt;" style="rounded=1;whiteSpace=wrap;html=1;fillColor=#f8cecc;strokeColor=#b85450;arcSize=35;rotation=0;" vertex="1" parent="3-QKMSvpxjSs46W9_JY8-78">
          <mxGeometry y="318.5714285714286" width="419.99999999999994" height="30.91168091168091" as="geometry" />
        </mxCell>
        <mxCell id="3-QKMSvpxjSs46W9_JY8-77" style="edgeStyle=orthogonalEdgeStyle;rounded=0;orthogonalLoop=1;jettySize=auto;html=1;exitX=0.5;exitY=1;exitDx=0;exitDy=0;entryX=0.5;entryY=0;entryDx=0;entryDy=0;fontFamily=Helvetica;fontSize=12;fontColor=default;" edge="1" parent="3-QKMSvpxjSs46W9_JY8-78" source="3-QKMSvpxjSs46W9_JY8-76" target="3-QKMSvpxjSs46W9_JY8-68">
          <mxGeometry relative="1" as="geometry" />
        </mxCell>
        <mxCell id="3-QKMSvpxjSs46W9_JY8-76" value="&lt;font style=&quot;font-size: 38px;&quot;&gt;image&lt;/font&gt;" style="rounded=0;whiteSpace=wrap;html=1;strokeColor=#d79b00;align=center;verticalAlign=middle;arcSize=35;fontFamily=Helvetica;fontSize=12;fontColor=default;fillColor=#ffe6cc;strokeWidth=5;rotation=0;" vertex="1" parent="3-QKMSvpxjSs46W9_JY8-78">
          <mxGeometry x="7.3" width="412.7" height="37.83783783783784" as="geometry" />
        </mxCell>
        <mxCell id="3-QKMSvpxjSs46W9_JY8-79" value="" style="group" vertex="1" connectable="0" parent="1">
          <mxGeometry x="5080" y="1360" width="440" height="330" as="geometry" />
        </mxCell>
        <mxCell id="3-QKMSvpxjSs46W9_JY8-80" value="" style="rounded=1;whiteSpace=wrap;html=1;fillColor=none;strokeWidth=3;" vertex="1" parent="3-QKMSvpxjSs46W9_JY8-79">
          <mxGeometry width="439.9999999999999" height="330" as="geometry" />
        </mxCell>
        <mxCell id="3-QKMSvpxjSs46W9_JY8-81" value="&lt;span style=&quot;font-size: 38px;&quot;&gt;bn2&lt;/span&gt;" style="rounded=1;whiteSpace=wrap;html=1;fillColor=#fff2cc;strokeColor=#d6b656;arcSize=35;rotation=0;" vertex="1" parent="3-QKMSvpxjSs46W9_JY8-79">
          <mxGeometry x="53.51351351351351" y="271.02888086642594" width="332.9729729729729" height="36.93140794223826" as="geometry" />
        </mxCell>
        <mxCell id="3-QKMSvpxjSs46W9_JY8-82" style="edgeStyle=orthogonalEdgeStyle;rounded=0;orthogonalLoop=1;jettySize=auto;html=1;exitX=0.5;exitY=1;exitDx=0;exitDy=0;entryX=0.5;entryY=0;entryDx=0;entryDy=0;fontFamily=Helvetica;fontSize=12;fontColor=default;" edge="1" parent="3-QKMSvpxjSs46W9_JY8-79" source="3-QKMSvpxjSs46W9_JY8-83" target="3-QKMSvpxjSs46W9_JY8-85">
          <mxGeometry relative="1" as="geometry" />
        </mxCell>
        <mxCell id="3-QKMSvpxjSs46W9_JY8-83" value="&lt;font style=&quot;font-size: 38px;&quot;&gt;conv1&lt;/font&gt;" style="rounded=1;whiteSpace=wrap;html=1;fillColor=#ffe6cc;strokeColor=#d79b00;arcSize=35;rotation=0;" vertex="1" parent="3-QKMSvpxjSs46W9_JY8-79">
          <mxGeometry x="53.51351351351351" y="14.296028880866425" width="332.9729729729729" height="36.93140794223826" as="geometry" />
        </mxCell>
        <mxCell id="3-QKMSvpxjSs46W9_JY8-84" style="edgeStyle=orthogonalEdgeStyle;rounded=0;orthogonalLoop=1;jettySize=auto;html=1;exitX=0.5;exitY=1;exitDx=0;exitDy=0;entryX=0.5;entryY=0;entryDx=0;entryDy=0;fontFamily=Helvetica;fontSize=12;fontColor=default;" edge="1" parent="3-QKMSvpxjSs46W9_JY8-79" source="3-QKMSvpxjSs46W9_JY8-85" target="3-QKMSvpxjSs46W9_JY8-89">
          <mxGeometry relative="1" as="geometry" />
        </mxCell>
        <mxCell id="3-QKMSvpxjSs46W9_JY8-85" value="&lt;span style=&quot;font-size: 38px;&quot;&gt;bn1&lt;/span&gt;" style="rounded=1;whiteSpace=wrap;html=1;fillColor=#fff2cc;strokeColor=#d6b656;arcSize=35;rotation=0;" vertex="1" parent="3-QKMSvpxjSs46W9_JY8-79">
          <mxGeometry x="53.51351351351351" y="81.01083032490973" width="332.9729729729729" height="36.93140794223826" as="geometry" />
        </mxCell>
        <mxCell id="3-QKMSvpxjSs46W9_JY8-86" style="edgeStyle=orthogonalEdgeStyle;rounded=0;orthogonalLoop=1;jettySize=auto;html=1;exitX=0.5;exitY=1;exitDx=0;exitDy=0;entryX=0.5;entryY=0;entryDx=0;entryDy=0;fontFamily=Helvetica;fontSize=12;fontColor=default;" edge="1" parent="3-QKMSvpxjSs46W9_JY8-79" source="3-QKMSvpxjSs46W9_JY8-87" target="3-QKMSvpxjSs46W9_JY8-81">
          <mxGeometry relative="1" as="geometry" />
        </mxCell>
        <mxCell id="3-QKMSvpxjSs46W9_JY8-87" value="&lt;font style=&quot;font-size: 38px;&quot;&gt;conv2&lt;/font&gt;" style="rounded=1;whiteSpace=wrap;html=1;fillColor=#ffe6cc;strokeColor=#d79b00;arcSize=35;rotation=0;" vertex="1" parent="3-QKMSvpxjSs46W9_JY8-79">
          <mxGeometry x="53.51351351351351" y="206.10108303249095" width="332.9729729729729" height="36.93140794223826" as="geometry" />
        </mxCell>
        <mxCell id="3-QKMSvpxjSs46W9_JY8-88" style="edgeStyle=orthogonalEdgeStyle;rounded=0;orthogonalLoop=1;jettySize=auto;html=1;exitX=0.5;exitY=1;exitDx=0;exitDy=0;entryX=0.5;entryY=0;entryDx=0;entryDy=0;fontFamily=Helvetica;fontSize=12;fontColor=default;" edge="1" parent="3-QKMSvpxjSs46W9_JY8-79" source="3-QKMSvpxjSs46W9_JY8-89" target="3-QKMSvpxjSs46W9_JY8-87">
          <mxGeometry relative="1" as="geometry" />
        </mxCell>
        <mxCell id="3-QKMSvpxjSs46W9_JY8-89" value="&lt;span style=&quot;font-size: 38px;&quot;&gt;relu&lt;/span&gt;" style="rounded=1;whiteSpace=wrap;html=1;fillColor=#cce5ff;strokeColor=#36393d;arcSize=35;rotation=0;" vertex="1" parent="3-QKMSvpxjSs46W9_JY8-79">
          <mxGeometry x="53.51351351351351" y="146.53429602888085" width="332.9729729729729" height="36.93140794223826" as="geometry" />
        </mxCell>
        <mxCell id="3-QKMSvpxjSs46W9_JY8-90" style="edgeStyle=orthogonalEdgeStyle;rounded=0;orthogonalLoop=1;jettySize=auto;html=1;exitX=0.5;exitY=1;exitDx=0;exitDy=0;entryX=0.5;entryY=0;entryDx=0;entryDy=0;fontFamily=Helvetica;fontSize=12;fontColor=default;" edge="1" parent="1" source="3-QKMSvpxjSs46W9_JY8-72" target="3-QKMSvpxjSs46W9_JY8-83">
          <mxGeometry relative="1" as="geometry" />
        </mxCell>
        <mxCell id="3-QKMSvpxjSs46W9_JY8-91" value="" style="group" vertex="1" connectable="0" parent="1">
          <mxGeometry x="5080" y="1740" width="440" height="330" as="geometry" />
        </mxCell>
        <mxCell id="3-QKMSvpxjSs46W9_JY8-92" value="" style="rounded=1;whiteSpace=wrap;html=1;fillColor=none;strokeWidth=3;" vertex="1" parent="3-QKMSvpxjSs46W9_JY8-91">
          <mxGeometry width="439.9999999999999" height="330" as="geometry" />
        </mxCell>
        <mxCell id="3-QKMSvpxjSs46W9_JY8-93" value="&lt;span style=&quot;font-size: 38px;&quot;&gt;bn2&lt;/span&gt;" style="rounded=1;whiteSpace=wrap;html=1;fillColor=#fff2cc;strokeColor=#d6b656;arcSize=35;rotation=0;" vertex="1" parent="3-QKMSvpxjSs46W9_JY8-91">
          <mxGeometry x="53.51351351351351" y="271.02888086642594" width="332.9729729729729" height="36.93140794223826" as="geometry" />
        </mxCell>
        <mxCell id="3-QKMSvpxjSs46W9_JY8-94" style="edgeStyle=orthogonalEdgeStyle;rounded=0;orthogonalLoop=1;jettySize=auto;html=1;exitX=0.5;exitY=1;exitDx=0;exitDy=0;entryX=0.5;entryY=0;entryDx=0;entryDy=0;fontFamily=Helvetica;fontSize=12;fontColor=default;" edge="1" parent="3-QKMSvpxjSs46W9_JY8-91" source="3-QKMSvpxjSs46W9_JY8-95" target="3-QKMSvpxjSs46W9_JY8-97">
          <mxGeometry relative="1" as="geometry" />
        </mxCell>
        <mxCell id="3-QKMSvpxjSs46W9_JY8-95" value="&lt;font style=&quot;font-size: 38px;&quot;&gt;conv1&lt;/font&gt;" style="rounded=1;whiteSpace=wrap;html=1;fillColor=#ffe6cc;strokeColor=#d79b00;arcSize=35;rotation=0;" vertex="1" parent="3-QKMSvpxjSs46W9_JY8-91">
          <mxGeometry x="53.51351351351351" y="14.296028880866425" width="332.9729729729729" height="36.93140794223826" as="geometry" />
        </mxCell>
        <mxCell id="3-QKMSvpxjSs46W9_JY8-96" style="edgeStyle=orthogonalEdgeStyle;rounded=0;orthogonalLoop=1;jettySize=auto;html=1;exitX=0.5;exitY=1;exitDx=0;exitDy=0;entryX=0.5;entryY=0;entryDx=0;entryDy=0;fontFamily=Helvetica;fontSize=12;fontColor=default;" edge="1" parent="3-QKMSvpxjSs46W9_JY8-91" source="3-QKMSvpxjSs46W9_JY8-97" target="3-QKMSvpxjSs46W9_JY8-101">
          <mxGeometry relative="1" as="geometry" />
        </mxCell>
        <mxCell id="3-QKMSvpxjSs46W9_JY8-97" value="&lt;span style=&quot;font-size: 38px;&quot;&gt;bn1&lt;/span&gt;" style="rounded=1;whiteSpace=wrap;html=1;fillColor=#fff2cc;strokeColor=#d6b656;arcSize=35;rotation=0;" vertex="1" parent="3-QKMSvpxjSs46W9_JY8-91">
          <mxGeometry x="53.51351351351351" y="81.01083032490973" width="332.9729729729729" height="36.93140794223826" as="geometry" />
        </mxCell>
        <mxCell id="3-QKMSvpxjSs46W9_JY8-98" style="edgeStyle=orthogonalEdgeStyle;rounded=0;orthogonalLoop=1;jettySize=auto;html=1;exitX=0.5;exitY=1;exitDx=0;exitDy=0;entryX=0.5;entryY=0;entryDx=0;entryDy=0;fontFamily=Helvetica;fontSize=12;fontColor=default;" edge="1" parent="3-QKMSvpxjSs46W9_JY8-91" source="3-QKMSvpxjSs46W9_JY8-99" target="3-QKMSvpxjSs46W9_JY8-93">
          <mxGeometry relative="1" as="geometry" />
        </mxCell>
        <mxCell id="3-QKMSvpxjSs46W9_JY8-99" value="&lt;font style=&quot;font-size: 38px;&quot;&gt;conv2&lt;/font&gt;" style="rounded=1;whiteSpace=wrap;html=1;fillColor=#ffe6cc;strokeColor=#d79b00;arcSize=35;rotation=0;" vertex="1" parent="3-QKMSvpxjSs46W9_JY8-91">
          <mxGeometry x="53.51351351351351" y="206.10108303249095" width="332.9729729729729" height="36.93140794223826" as="geometry" />
        </mxCell>
        <mxCell id="3-QKMSvpxjSs46W9_JY8-100" style="edgeStyle=orthogonalEdgeStyle;rounded=0;orthogonalLoop=1;jettySize=auto;html=1;exitX=0.5;exitY=1;exitDx=0;exitDy=0;entryX=0.5;entryY=0;entryDx=0;entryDy=0;fontFamily=Helvetica;fontSize=12;fontColor=default;" edge="1" parent="3-QKMSvpxjSs46W9_JY8-91" source="3-QKMSvpxjSs46W9_JY8-101" target="3-QKMSvpxjSs46W9_JY8-99">
          <mxGeometry relative="1" as="geometry" />
        </mxCell>
        <mxCell id="3-QKMSvpxjSs46W9_JY8-101" value="&lt;span style=&quot;font-size: 38px;&quot;&gt;relu&lt;/span&gt;" style="rounded=1;whiteSpace=wrap;html=1;fillColor=#cce5ff;strokeColor=#36393d;arcSize=35;rotation=0;" vertex="1" parent="3-QKMSvpxjSs46W9_JY8-91">
          <mxGeometry x="53.51351351351351" y="146.53429602888085" width="332.9729729729729" height="36.93140794223826" as="geometry" />
        </mxCell>
        <mxCell id="3-QKMSvpxjSs46W9_JY8-102" style="edgeStyle=orthogonalEdgeStyle;rounded=0;orthogonalLoop=1;jettySize=auto;html=1;exitX=0.5;exitY=1;exitDx=0;exitDy=0;entryX=0.5;entryY=0;entryDx=0;entryDy=0;fontFamily=Helvetica;fontSize=12;fontColor=default;" edge="1" parent="1" source="3-QKMSvpxjSs46W9_JY8-81" target="3-QKMSvpxjSs46W9_JY8-95">
          <mxGeometry relative="1" as="geometry" />
        </mxCell>
      </root>
    </mxGraphModel>
  </diagram>
</mxfile>
